Genre:Comedy
Language:English
IMDb:http://www.imdb.com/title/tt1334512/
Source:1080p.Bluray.x264-MaxHD Thanks!

Format : MPEG-4
Format profile : Base Media
Codec ID : isom
File size : 2.60 GiB
Duration : 1h 49mn
Overall bit rate : 3 381 Kbps

Video
ID : 1
Format : AVC
Format/Info : Advanced Video Codec
Format profile : High@L4.1
Format settings, CABAC : Yes
Format settings, ReFrames : 3 frames
Codec ID : avc1
Codec ID/Info : Advanced Video Coding
Duration : 1h 49mn
Bit rate mode : Variable
Bit rate : 3 000 Kbps
Maximum bit rate : 17.8 Mbps
Width : 1 280 pixels
Height : 720 pixels
Display aspect ratio : 16:9
Frame rate mode : Constant
Frame rate : 23.976 fps
Color space : YUV
Chroma subsampling : 4:2:0
Bit depth : 8 bits
Scan type : Progressive
Bits/(Pixel*Frame) : 0.136
Stream size : 2.29 GiB (88%)
Writing library : x264

Audio
ID : 2
Format : AAC
Format/Info : Advanced Audio Codec
Format version : Version 4
Format profile : LC
Format settings, SBR : No
Codec ID : 40
Duration : 1h 49mn
Bit rate mode : Variable
Bit rate : 395 Kbps
Maximum bit rate : 510 Kbps
Channel(s) : 6 channels
Channel positions : Front: L C R, Side: L R, LFE
Sampling rate : 48.0 KHz
Stream size : 311 MiB (12%)


Plot:
A drunken playboy stands to lose a wealthy inheritance when he falls for a woman his family doesn't like.

 
http://leetleech.org/images/74473076748581526140.png
 
http://leetleech.org/images/14333908770490701352.png
 
http://leetleech.org/images/62403439339722853442.png
 
http://leetleech.org/images/30664090070575094901.png

